<?xml version="1.0" encoding="UTF-8"?>
<!DOCTYPE svg PUBLIC "-//W3C//DTD SVG 1.1//EN" "http://www.w3.org/Graphics/SVG/1.1/DTD/svg11.dtd">
<svg version="1.1" xmlns="http://www.w3.org/2000/svg" xmlns:xlink="http://www.w3.org/1999/xlink" width="720" height="468"  xml:space="preserve" id="soniaTitel01Canvas">
    <!-- Generated by PaintCode - http://www.paintcodeapp.com -->
    <path id="soniaTitel01Canvas-bjornsen" fill-rule="evenodd" stroke="none" fill="rgb(86, 86, 86)" d="M 282.81,287.08 C 288.08,287.08 292.25,285.95 295.3,283.68 298.36,281.42 298.36,281.42 299.89,273.64 L 299.89,273.63 C 300.04,270.83 299.04,268.1 297.13,266.05 L 297.12,266.04 C 295.11,264.1 292.53,262.84 289.76,262.45 L 289.67,262.16 289.75,262.14 C 291.95,261.55 293.87,260.2 295.17,258.34 L 295.1,258.44 C 296.38,256.54 297.03,254.29 296.95,251.99 296.95,248.3 295.62,245.49 292.96,243.64 290.3,241.8 290.3,241.8 281.97,240.88 L 269.93,240.88 269.93,287.08 282.81,287.08 Z M 272.17,242.84 L 280.99,242.84 C 285.52,242.84 288.93,243.54 291.24,244.94 293.55,246.34 293.55,246.34 294.71,252.22 L 294.71,252.26 C 294.8,254.92 293.57,257.44 291.42,259.01 289.22,260.64 285.61,261.46 280.57,261.46 L 272.17,261.46 272.17,242.84 Z M 272.17,263.42 L 281.97,263.42 C 286.96,263.42 290.82,264.27 293.55,265.97 L 293.51,265.95 C 296.23,267.58 297.82,270.58 297.66,273.74 L 297.66,273.87 C 297.69,275.62 297.3,277.35 296.54,278.92 L 296.56,278.86 C 295.84,280.29 294.76,281.51 293.43,282.4 L 293.54,282.33 C 292.03,283.35 290.34,284.07 288.56,284.44 L 288.4,284.48 C 286.23,284.94 284.01,285.15 281.78,285.12 L 272.17,285.12 272.17,263.42 272.17,263.42 Z M 325.12,286.9 L 325.18,286.88 C 326.5,286.26 327.66,285.32 328.54,284.15 L 328.54,284.15 C 329.46,282.89 330.11,281.46 330.46,279.95 L 330.41,280.13 C 330.83,278.46 331.04,276.75 331.04,275.03 L 331.04,240.88 328.8,240.88 328.8,274.61 C 328.8,278.49 328.09,281.32 326.67,283.11 325.24,284.91 325.24,284.91 320.12,285.81 L 320.17,285.81 C 318.37,285.87 316.58,285.46 314.98,284.61 L 314.85,284.54 C 313.18,283.45 311.81,281.96 310.87,280.2 L 309.06,281.33 309.06,281.32 C 310.08,283.34 311.64,285.04 313.56,286.24 L 313.59,286.25 C 317.17,288.23 321.46,288.46 325.22,286.86 L 325.12,286.9 Z M 371.95,286.2 L 371.84,286.26 C 374.2,285.11 376.27,283.43 377.88,281.36 L 377.78,281.5 C 379.56,279.22 380.9,276.64 381.75,273.88 L 381.75,273.85 C 382.71,270.73 383.19,267.49 383.19,264.23 L 383.19,263.98 C 383.25,260.57 382.77,257.17 381.77,253.9 L 381.76,253.87 C 380.94,251.2 379.64,248.7 377.92,246.5 L 377.82,246.38 C 376.18,244.34 374.08,242.71 371.71,241.6 L 371.92,241.7 C 367.16,239.48 361.66,239.48 356.9,241.7 L 356.92,241.69 C 354.64,242.8 352.64,244.4 351.04,246.36 L 350.93,246.51 C 349.21,248.7 347.92,251.2 347.1,253.86 L 347.09,253.91 C 346.09,257.17 345.61,260.57 345.67,263.98 L 345.67,263.66 C 345.61,267.11 346.09,270.55 347.1,273.84 L 347.11,273.88 C 347.96,276.64 349.3,279.22 351.07,281.49 L 350.99,281.38 C 352.55,283.38 354.53,285.01 356.79,286.16 L 356.76,286.15 C 361.49,288.46 367.01,288.5 371.78,286.28 L 371.95,286.2 Z M 357.71,284.24 L 357.66,284.21 C 355.64,283.14 353.89,281.62 352.54,279.77 L 352.6,279.85 C 351.11,277.8 349.99,275.51 349.3,273.07 L 349.29,273.03 C 348.46,270.16 348.05,267.19 348.05,264.21 L 348.05,263.99 C 348,261.04 348.36,258.1 349.13,255.25 L 349.28,254.68 C 350,252.17 351.18,249.81 352.75,247.72 L 352.5,248.07 C 353.84,246.21 355.61,244.7 357.65,243.66 L 357.78,243.6 C 362.07,241.6 367.03,241.64 371.28,243.72 L 371.01,243.59 C 373.06,244.59 374.84,246.06 376.22,247.88 L 376.32,248.01 C 377.86,250.13 378.99,252.52 379.67,255.05 L 379.58,254.71 C 380.39,257.55 380.81,260.49 380.81,263.45 L 380.8,263.65 C 380.85,266.63 380.49,269.61 379.71,272.5 L 379.66,272.7 C 379,275.15 377.92,277.47 376.47,279.55 L 376.32,279.75 C 374.98,281.59 373.24,283.11 371.23,284.17 L 371,284.29 C 366.76,286.36 361.78,286.32 357.57,284.18 L 357.71,284.24 Z M 400.2,287.07 L 400.2,265.24 410.56,265.24 423.58,287.07 426.24,287.07 413.08,265.09 413.13,265.09 C 416.48,264.92 419.68,263.63 422.21,261.42 424.43,259.34 425.54,256.46 425.54,252.78 L 425.54,252.85 C 425.6,250.98 425.26,249.12 424.53,247.4 L 424.47,247.27 C 423.78,245.8 422.73,244.52 421.42,243.57 L 421.54,243.66 C 420.16,242.66 418.58,241.94 416.91,241.55 L 416.87,241.54 C 414.79,241.06 412.67,240.84 410.54,240.88 L 397.96,240.87 397.96,287.07 400.2,287.07 Z M 400.2,242.84 L 409.86,242.84 C 414.15,242.84 417.44,243.58 419.73,245.08 422.01,246.57 422.01,246.57 423.16,252.78 423.16,256.37 422.01,259.02 419.73,260.72 417.44,262.42 417.44,262.42 409.86,263.27 L 400.2,263.27 400.2,242.84 400.2,242.84 Z M 441.29,287.07 L 441.29,256.7 C 441.29,254.51 441.26,252.41 441.22,250.4 441.17,248.39 441.17,248.39 441.01,244.1 L 441.29,244.1 446.61,253.2 467.05,287.08 469.43,287.08 469.43,240.88 467.33,240.88 467.33,270.84 C 467.33,273.03 467.35,275.19 467.4,277.31 467.44,279.44 467.44,279.44 467.61,283.86 L 467.33,283.86 462.01,274.76 441.57,240.88 439.19,240.88 439.19,287.08 441.29,287.08 441.29,287.07 Z M 504.92,287 L 504.88,287.02 C 506.53,286.48 508.06,285.63 509.38,284.52 L 509.51,284.42 C 510.75,283.34 511.75,282 512.45,280.51 L 512.41,280.59 C 513.13,279.05 513.49,277.37 513.46,275.68 L 513.46,275.65 C 513.49,274.06 513.19,272.47 512.6,271 L 512.68,271.2 C 512.17,269.94 511.43,268.8 510.49,267.82 L 510.56,267.9 C 509.65,266.96 508.61,266.14 507.47,265.48 506.15,264.73 504.92,264.12 503.66,263.55 L 496.52,260.33 C 495.68,259.96 494.8,259.53 493.86,259.03 L 493.81,259.01 C 492.87,258.51 491.98,257.89 491.19,257.17 L 491.19,257.18 C 490.35,256.42 489.66,255.52 489.15,254.51 L 489.18,254.57 C 488.62,253.43 488.36,252.18 488.4,250.92 L 488.4,250.97 C 488.32,248.46 489.43,246.06 491.41,244.52 L 491.39,244.53 C 493.65,242.84 496.43,241.99 499.24,242.13 L 499.18,242.13 C 501.41,242.09 503.62,242.56 505.65,243.5 L 505.51,243.44 C 507.38,244.31 509.05,245.55 510.42,247.08 L 511.78,245.49 511.79,245.5 C 510.25,243.9 508.44,242.59 506.45,241.62 L 506.48,241.63 C 504.15,240.49 501.56,239.95 498.97,240.04 L 499.3,240.03 C 497.51,240 495.74,240.27 494.04,240.82 L 494.02,240.82 C 492.55,241.3 491.18,242.05 489.97,243.02 L 489.84,243.13 C 488.72,244.07 487.81,245.24 487.16,246.56 L 487.11,246.67 C 486.46,248.07 486.14,249.59 486.16,251.14 L 486.16,251.01 C 486.11,252.52 486.41,254.03 487.02,255.42 L 487.1,255.6 C 487.67,256.76 488.45,257.81 489.39,258.69 L 489.36,258.66 C 490.28,259.52 491.31,260.26 492.41,260.88 L 492.52,260.94 C 493.58,261.53 494.67,262.06 495.78,262.53 L 502.68,265.64 C 503.85,266.16 504.94,266.7 505.97,267.25 L 505.91,267.22 C 506.87,267.73 507.76,268.38 508.55,269.14 L 508.64,269.23 C 509.42,270.01 510.05,270.92 510.5,271.93 L 510.53,272 C 511.03,273.25 511.27,274.58 511.22,275.92 L 511.22,275.84 C 511.25,277.24 510.95,278.64 510.36,279.91 L 510.32,279.99 C 509.74,281.18 508.9,282.23 507.87,283.07 L 507.94,283.01 C 506.83,283.91 505.57,284.59 504.21,285.03 L 503.98,285.11 C 502.36,285.6 500.67,285.84 498.98,285.81 L 499.18,285.81 C 496.54,285.85 493.92,285.3 491.52,284.18 L 491.22,284.04 C 488.85,282.88 486.75,281.23 485.05,279.21 L 483.64,280.91 483.65,280.92 C 485.46,283 487.65,284.71 490.1,285.96 L 490.12,285.97 C 492.95,287.35 496.08,288.01 499.22,287.9 L 498.95,287.91 C 500.96,287.94 502.96,287.65 504.86,287.03 L 504.92,287 Z M 552.73,287.07 L 552.73,285.12 529.49,285.12 529.49,263.42 548.39,263.42 548.39,261.46 529.49,261.46 529.49,242.84 552.03,242.84 552.03,240.88 527.25,240.88 527.25,287.08 552.73,287.07 Z M 568.9,287.07 L 568.9,256.7 C 568.9,254.51 568.87,252.41 568.83,250.4 568.78,248.39 568.78,248.39 568.62,244.1 L 568.9,244.1 574.22,253.2 594.66,287.08 597.04,287.08 597.04,240.88 594.94,240.88 594.94,270.84 C 594.94,273.03 594.96,275.19 595.01,277.31 595.05,279.44 595.05,279.44 595.22,283.86 L 594.94,283.86 589.62,274.76 569.18,240.88 566.8,240.88 566.8,287.08 568.9,287.08 568.9,287.07 Z M 568.9,287.07" />
    <path id="soniaTitel01Canvas-sonia_Lynn" fill-rule="evenodd" stroke="none" fill="rgb(86, 86, 86)" d="M 289.88,217.01 L 289.85,217.02 C 291.49,216.48 293.02,215.64 294.35,214.53 L 294.47,214.42 C 295.71,213.34 296.72,212.01 297.41,210.51 L 297.38,210.59 C 298.09,209.06 298.45,207.38 298.42,205.68 L 298.42,205.66 C 298.45,204.07 298.16,202.49 297.56,201.01 L 297.63,201.2 C 297.13,199.94 296.38,198.8 295.44,197.83 L 295.52,197.91 C 294.61,196.96 293.57,196.14 292.42,195.49 291.11,194.74 289.88,194.12 288.62,193.56 L 281.48,190.34 C 280.64,189.97 279.75,189.53 278.82,189.04 L 278.77,189.02 C 277.83,188.51 276.94,187.9 276.15,187.18 L 276.15,187.18 C 275.31,186.43 274.62,185.52 274.11,184.52 L 274.14,184.57 C 273.58,183.44 273.32,182.19 273.36,180.93 L 273.36,180.98 C 273.27,178.47 274.39,176.07 276.37,174.53 L 276.35,174.54 C 278.61,172.84 281.38,171.99 284.2,172.14 L 284.14,172.14 C 286.37,172.1 288.58,172.57 290.6,173.51 L 290.47,173.45 C 292.33,174.32 294.01,175.56 295.38,177.09 L 296.74,175.5 296.75,175.5 C 295.21,173.91 293.4,172.6 291.41,171.62 L 291.44,171.64 C 289.11,170.5 286.52,169.95 283.93,170.04 L 284.25,170.04 C 282.47,170.01 280.7,170.27 279,170.82 L 278.98,170.83 C 277.51,171.31 276.14,172.05 274.93,173.03 L 274.8,173.14 C 273.68,174.08 272.77,175.25 272.12,176.57 L 272.07,176.67 C 271.42,178.07 271.09,179.6 271.12,181.15 L 271.12,181.01 C 271.07,182.53 271.36,184.04 271.98,185.43 L 272.06,185.61 C 272.63,186.77 273.41,187.82 274.35,188.7 L 274.3,188.65 C 275.23,189.51 276.25,190.26 277.36,190.87 L 277.48,190.94 C 278.54,191.53 279.63,192.06 280.74,192.53 L 287.64,195.65 C 288.81,196.16 289.9,196.7 290.93,197.26 L 290.87,197.22 C 291.83,197.74 292.72,198.38 293.51,199.14 L 293.6,199.23 C 294.38,200.01 295.01,200.93 295.46,201.93 L 295.49,202.01 C 295.99,203.25 296.23,204.58 296.18,205.93 L 296.18,205.84 C 296.21,207.25 295.91,208.64 295.32,209.91 L 295.28,209.99 C 294.7,211.18 293.86,212.23 292.83,213.07 L 292.9,213.01 C 291.79,213.91 290.53,214.6 289.17,215.04 L 288.94,215.11 C 287.32,215.6 285.63,215.84 283.94,215.81 L 284.14,215.81 C 281.5,215.86 278.88,215.3 276.48,214.18 L 276.18,214.04 C 273.81,212.88 271.7,211.24 270.01,209.21 L 268.6,210.91 268.61,210.93 C 270.42,213 272.61,214.71 275.06,215.96 L 275.08,215.97 C 277.91,217.35 281.04,218.02 284.18,217.91 L 283.91,217.91 C 285.91,217.95 287.91,217.65 289.82,217.03 L 289.88,217.01 Z M 331.57,216.2 L 331.45,216.26 C 333.81,215.11 335.88,213.44 337.49,211.37 L 337.39,211.5 C 339.17,209.22 340.52,206.64 341.36,203.88 L 341.37,203.86 C 342.32,200.74 342.8,197.5 342.8,194.24 L 342.8,193.99 C 342.86,190.57 342.38,187.17 341.38,183.9 L 341.37,183.87 C 340.56,181.2 339.26,178.7 337.54,176.5 L 337.44,176.38 C 335.79,174.34 333.7,172.71 331.32,171.6 L 331.53,171.7 C 326.77,169.48 321.27,169.48 316.51,171.7 L 316.53,171.7 C 314.25,172.8 312.25,174.4 310.66,176.36 L 310.54,176.51 C 308.82,178.71 307.53,181.2 306.71,183.86 L 306.7,183.91 C 305.7,187.17 305.22,190.57 305.28,193.98 L 305.28,193.67 C 305.22,197.12 305.71,200.55 306.71,203.85 L 306.72,203.88 C 307.57,206.64 308.91,209.22 310.68,211.49 L 310.6,211.38 C 312.16,213.38 314.14,215.01 316.4,216.16 L 316.37,216.15 C 321.1,218.46 326.62,218.51 331.39,216.28 L 331.57,216.2 Z M 317.32,214.24 L 317.27,214.22 C 315.25,213.14 313.5,211.62 312.15,209.77 L 312.21,209.85 C 310.73,207.8 309.61,205.51 308.91,203.07 L 308.9,203.04 C 308.08,200.17 307.66,197.2 307.66,194.21 L 307.66,194 C 307.61,191.05 307.97,188.1 308.74,185.25 L 308.89,184.68 C 309.62,182.17 310.79,179.81 312.36,177.72 L 312.11,178.07 C 313.46,176.22 315.22,174.71 317.27,173.67 L 317.4,173.6 C 321.68,171.6 326.64,171.65 330.89,173.72 L 330.62,173.59 C 332.67,174.59 334.46,176.06 335.83,177.88 L 335.93,178.02 C 337.47,180.14 338.61,182.52 339.28,185.05 L 339.19,184.71 C 340.01,187.55 340.42,190.49 340.42,193.45 L 340.41,193.65 C 340.47,196.64 340.1,199.62 339.33,202.5 L 339.27,202.7 C 338.61,205.15 337.53,207.47 336.08,209.55 L 335.93,209.76 C 334.59,211.6 332.85,213.11 330.84,214.18 L 330.62,214.29 C 326.37,216.36 321.4,216.32 317.19,214.18 L 317.32,214.24 Z M 355.82,217.08 L 355.82,186.7 C 355.82,184.51 355.8,182.41 355.75,180.4 355.7,178.39 355.7,178.39 355.54,174.1 L 355.82,174.1 361.14,183.2 381.58,217.08 383.96,217.08 383.96,170.88 381.86,170.88 381.86,200.84 C 381.86,203.03 381.88,205.19 381.93,207.31 381.98,209.44 381.98,209.44 382.14,213.86 L 381.86,213.86 376.54,204.76 356.1,170.88 353.72,170.88 353.72,217.08 355.82,217.08 355.82,217.08 Z M 400.2,217.08 L 400.2,170.88 397.96,170.88 397.96,217.08 400.2,217.08 Z M 422.7,181.38 C 423.56,178.86 424.42,176.15 425.25,173.26 L 425.53,173.26 C 426.37,176.15 427.23,178.86 428.09,181.38 428.95,183.9 428.95,183.9 430.85,189.36 L 434.07,198.6 416.64,198.6 419.94,189.36 C 420.92,186.56 421.84,183.9 422.7,181.38 Z M 410.13,217.08 L 415.94,200.56 434.77,200.56 440.51,217.08 442.89,217.08 426.38,170.88 424.42,170.88 407.9,217.08 410.13,217.08 Z M 488.53,217.08 L 488.53,215.12 466.83,215.12 466.83,170.88 464.6,170.88 464.6,217.08 488.54,217.08 488.53,217.08 Z M 501.41,217.08 L 501.41,198.04 515.27,170.88 513.03,170.88 505.61,185.86 C 504.82,187.54 503.99,189.19 503.13,190.83 502.27,192.46 502.27,192.46 500.43,195.8 L 500.15,195.8 C 499.22,194.12 498.36,192.46 497.56,190.83 496.77,189.19 496.77,189.19 495.12,185.86 L 487.69,170.88 485.31,170.88 499.18,198.04 499.18,217.08 501.41,217.08 Z M 524.65,217.08 L 524.65,186.7 C 524.65,184.51 524.63,182.41 524.58,180.4 524.54,178.39 524.54,178.39 524.37,174.1 L 524.65,174.1 529.97,183.2 550.41,217.08 552.79,217.08 552.79,170.88 550.69,170.88 550.69,200.84 C 550.69,203.03 550.72,205.19 550.76,207.31 550.81,209.44 550.81,209.44 550.97,213.86 L 550.7,213.86 545.38,204.76 524.94,170.88 522.56,170.88 522.56,217.08 524.66,217.08 524.65,217.08 Z M 568.89,217.08 L 568.89,186.7 C 568.89,184.51 568.87,182.41 568.82,180.4 568.78,178.39 568.78,178.39 568.61,174.1 L 568.89,174.1 574.21,183.2 594.65,217.08 597.03,217.08 597.03,170.88 594.93,170.88 594.93,200.84 C 594.93,203.03 594.96,205.19 595,207.31 595.05,209.44 595.05,209.44 595.21,213.86 L 594.93,213.86 589.61,204.76 569.17,170.88 566.8,170.88 566.8,217.08 568.9,217.08 568.89,217.08 Z M 568.89,217.08" />
</svg>
