<?xml version="1.0" encoding="UTF-8"?>
<!DOCTYPE svg PUBLIC "-//W3C//DTD SVG 1.1//EN" "http://www.w3.org/Graphics/SVG/1.1/DTD/svg11.dtd">
<svg version="1.1" xmlns="http://www.w3.org/2000/svg" xmlns:xlink="http://www.w3.org/1999/xlink" width="330" height="150"  xml:space="preserve" id="soniaWebsiteTitel">
    <!-- Generated by PaintCode - http://www.paintcodeapp.com -->
    <g id="soniaWebsiteTitel-group">
        <path id="soniaWebsiteTitel-soprano" fill-rule="evenodd" stroke="none" fill="rgb(128, 128, 128)" d="M 7.14,144.84 L 7.14,144.83 C 6.96,144.53 6.71,144.28 6.41,144.1 L 6.46,144.13 C 5.99,143.84 5.49,143.62 4.97,143.45 L 4.9,143.43 C 4.43,143.27 3.97,143.07 3.53,142.83 L 3.55,142.84 C 3.32,142.71 3.12,142.51 2.98,142.28 L 2.99,142.29 C 2.87,142.05 2.81,141.79 2.82,141.52 L 2.82,141.51 C 2.8,141.04 3.01,140.59 3.39,140.31 L 3.39,140.31 C 3.83,140 4.36,139.85 4.89,139.88 L 4.9,139.88 C 5.61,139.89 6.31,140.05 6.96,140.34 L 7.15,139.81 7.13,139.8 C 6.4,139.49 5.61,139.34 4.82,139.35 L 4.86,139.35 C 4.15,139.33 3.46,139.55 2.91,139.98 L 2.94,139.96 C 2.05,140.7 1.94,142.02 2.68,142.91 2.69,142.92 2.69,142.93 2.7,142.93 L 2.7,142.93 C 3.23,143.39 3.86,143.73 4.54,143.91 L 4.57,143.92 C 5.02,144.07 5.47,144.25 5.89,144.48 L 5.85,144.46 C 6.11,144.59 6.34,144.79 6.52,145.03 L 6.53,145.04 C 6.67,145.29 6.75,145.57 6.74,145.85 L 6.74,145.87 C 6.75,146.37 6.51,146.84 6.11,147.13 L 6.11,147.13 C 5.62,147.47 5.04,147.64 4.45,147.61 L 4.46,147.61 C 3.64,147.63 2.83,147.5 2.06,147.21 L 2.08,147.81 2.07,147.81 C 2.83,148.07 3.63,148.19 4.43,148.16 L 4.49,148.16 C 5.23,148.2 5.97,147.98 6.58,147.54 L 6.59,147.53 C 7.11,147.13 7.4,146.5 7.38,145.84 L 7.38,145.85 C 7.39,145.51 7.31,145.17 7.16,144.86 L 7.14,144.84 Z M 16.81,140.52 L 16.83,140.54 C 16.12,139.73 15.08,139.29 14.01,139.34 L 14.02,139.34 C 12.95,139.29 11.92,139.72 11.2,140.51 L 11.21,140.5 C 10.48,141.4 10.11,142.55 10.17,143.72 L 10.17,143.76 C 10.11,144.91 10.47,146.05 11.18,146.96 L 11.18,146.96 C 12.68,148.52 15.16,148.56 16.72,147.06 16.76,147.03 16.79,147 16.82,146.96 L 16.81,146.97 C 18.17,145.03 18.17,142.45 16.81,140.52 L 16.81,140.52 Z M 11.65,140.92 L 11.64,140.93 C 12.9,139.62 14.99,139.58 16.3,140.85 16.31,140.86 16.32,140.87 16.34,140.89 L 16.36,140.9 C 16.96,141.73 17.25,142.74 17.18,143.77 L 17.18,143.73 C 17.25,144.73 16.97,145.73 16.39,146.56 L 16.37,146.6 C 15.11,147.9 13.03,147.94 11.72,146.68 11.7,146.65 11.67,146.62 11.64,146.6 L 11.65,146.6 C 11.06,145.79 10.76,144.8 10.82,143.8 L 10.82,143.77 C 10.75,142.76 11.04,141.76 11.63,140.94 L 11.65,140.92 Z M 23.33,139.48 L 21.23,139.48 21.23,148.04 21.83,148.04 21.83,144.5 23.16,144.5 23.13,144.5 C 23.98,144.56 24.82,144.34 25.52,143.86 L 25.55,143.84 C 26.12,143.38 26.43,142.68 26.39,141.95 26.39,140.3 25.37,139.48 23.33,139.48 L 23.33,139.48 23.33,139.48 Z M 21.83,140.02 L 23.25,140.02 23.27,140.01 C 23.93,139.97 24.59,140.14 25.15,140.5 L 25.13,140.49 C 25.56,140.85 25.79,141.39 25.75,141.95 L 25.75,141.97 C 25.8,142.56 25.55,143.15 25.09,143.52 L 25.09,143.52 C 24.45,143.89 23.72,144.05 22.99,143.99 L 21.83,143.99 21.83,140.02 Z M 32.42,144.32 L 34.63,148.05 35.34,148.05 33.02,144.15 33.02,144.15 C 33.56,144.02 34.04,143.73 34.39,143.31 L 34.39,143.31 C 34.7,142.9 34.86,142.4 34.85,141.88 L 34.85,141.84 C 34.9,141.16 34.61,140.5 34.08,140.06 L 34.06,140.06 C 33.36,139.61 32.52,139.42 31.69,139.49 L 29.7,139.48 29.7,148.05 30.3,148.05 30.3,144.32 32.43,144.32 32.42,144.32 Z M 30.29,140.02 L 31.71,140.02 31.7,140.02 C 32.37,139.96 33.04,140.11 33.62,140.46 L 33.62,140.46 C 34.03,140.81 34.25,141.34 34.21,141.89 L 34.21,141.88 C 34.24,142.42 34.03,142.95 33.62,143.3 L 33.62,143.3 C 33.14,143.65 32.55,143.83 31.95,143.8 L 30.29,143.8 30.29,140.02 30.29,140.02 Z M 43.58,148.04 L 44.25,148.04 40.88,139.44 40.5,139.44 37.05,148.04 37.72,148.04 38.91,145.02 42.39,145.02 43.58,148.04 Z M 40.33,141.4 L 40.33,141.4 C 40.47,141.04 40.6,140.68 40.7,140.31 40.81,140.82 40.93,141.15 41.03,141.39 L 42.19,144.48 39.13,144.48 40.33,141.4 Z M 53.14,139.48 L 52.56,139.48 52.56,145.07 C 52.56,145.7 52.57,146.37 52.61,147.07 L 52.57,147.07 47.5,139.47 46.9,139.47 46.9,148.04 47.48,148.04 47.48,142.49 C 47.48,142.03 47.46,141.34 47.41,140.44 L 47.45,140.44 52.53,148.04 53.13,148.04 53.13,139.47 53.14,139.48 Z M 63.19,140.52 L 63.2,140.54 C 62.5,139.73 61.46,139.29 60.38,139.34 L 60.4,139.34 C 59.33,139.29 58.29,139.72 57.58,140.51 L 57.59,140.5 C 56.86,141.4 56.48,142.55 56.54,143.72 L 56.54,143.75 C 56.48,144.91 56.84,146.05 57.56,146.97 L 57.55,146.96 C 59.06,148.52 61.54,148.56 63.1,147.06 63.13,147.03 63.16,147 63.2,146.96 L 63.19,146.97 C 64.54,145.04 64.54,142.46 63.19,140.52 L 63.19,140.52 Z M 58.02,140.92 L 58.01,140.93 C 59.28,139.62 61.36,139.58 62.67,140.85 62.69,140.86 62.7,140.87 62.71,140.89 L 62.73,140.91 C 63.33,141.73 63.62,142.74 63.55,143.76 L 63.55,143.73 C 63.62,144.76 63.33,145.78 62.72,146.62 L 62.74,146.6 C 61.48,147.9 59.4,147.94 58.1,146.68 58.07,146.65 58.05,146.62 58.02,146.6 L 58.02,146.6 C 57.43,145.79 57.14,144.8 57.19,143.8 L 57.2,143.77 C 57.13,142.76 57.41,141.76 58.01,140.94 L 58.02,140.92 Z M 58.02,140.92" />
        <path id="soniaWebsiteTitel-bjornsen" fill-rule="evenodd" stroke="none" fill="rgb(86, 86, 86)" d="M 15.21,118.04 C 20.48,118.04 24.65,116.91 27.7,114.65 30.76,112.39 30.76,112.39 32.29,104.6 L 32.29,104.59 C 32.43,101.8 31.44,99.07 29.53,97.02 L 29.52,97.01 C 27.51,95.06 24.93,93.81 22.16,93.42 L 22.07,93.12 22.15,93.1 C 24.35,92.51 26.26,91.17 27.57,89.31 L 27.5,89.41 C 28.78,87.51 29.43,85.25 29.35,82.96 29.35,79.26 28.02,76.45 25.36,74.61 22.7,72.77 22.7,72.77 14.37,71.84 L 2.33,71.84 2.33,118.04 15.21,118.04 Z M 4.57,73.8 L 13.39,73.8 C 17.91,73.8 21.33,74.5 23.64,75.9 25.95,77.3 25.95,77.3 27.11,83.18 L 27.11,83.23 C 27.2,85.88 25.97,88.41 23.82,89.97 21.62,91.61 18.01,92.42 12.97,92.42 L 4.57,92.42 4.57,73.8 Z M 4.57,94.38 L 14.37,94.38 C 19.36,94.38 23.22,95.24 25.95,96.94 L 25.91,96.91 C 28.63,98.55 30.22,101.54 30.06,104.71 L 30.05,104.84 C 30.09,106.58 29.7,108.31 28.94,109.89 L 28.96,109.83 C 28.24,111.25 27.16,112.47 25.83,113.37 L 25.94,113.3 C 24.43,114.31 22.74,115.03 20.96,115.41 L 20.8,115.44 C 18.63,115.91 16.41,116.12 14.18,116.08 L 4.57,116.08 4.57,94.38 4.57,94.38 Z M 57.52,117.87 L 57.57,117.84 C 58.9,117.22 60.06,116.29 60.94,115.11 L 60.94,115.12 C 61.85,113.86 62.51,112.43 62.86,110.91 L 62.81,111.09 C 63.23,109.43 63.44,107.72 63.44,106 L 63.44,71.84 61.2,71.84 61.2,105.58 C 61.2,109.45 60.49,112.29 59.06,114.08 57.64,115.87 57.64,115.87 52.52,116.78 L 52.57,116.77 C 50.76,116.84 48.98,116.42 47.38,115.58 L 47.25,115.5 C 45.58,114.42 44.21,112.92 43.27,111.17 L 41.46,112.3 41.45,112.29 C 42.48,114.3 44.04,116 45.96,117.2 L 45.99,117.22 C 49.57,119.2 53.85,119.42 57.62,117.83 L 57.52,117.87 Z M 104.35,117.17 L 104.24,117.22 C 106.6,116.07 108.66,114.4 110.28,112.33 L 110.18,112.46 C 111.96,110.19 113.3,107.6 114.15,104.84 L 114.15,104.81 C 115.11,101.7 115.59,98.46 115.59,95.2 L 115.59,94.95 C 115.65,91.54 115.17,88.13 114.17,84.87 L 114.16,84.83 C 113.34,82.16 112.04,79.67 110.32,77.47 L 110.22,77.34 C 108.57,75.31 106.48,73.67 104.11,72.56 L 104.32,72.67 C 99.56,70.45 94.06,70.45 89.3,72.67 L 89.31,72.66 C 87.04,73.77 85.04,75.36 83.44,77.33 L 83.33,77.47 C 81.61,79.67 80.31,82.16 79.5,84.83 L 79.49,84.87 C 78.49,88.13 78.01,91.53 78.07,94.95 L 78.07,94.63 C 78.01,98.08 78.49,101.51 79.5,104.81 L 79.51,104.85 C 80.36,107.6 81.7,110.18 83.47,112.45 L 83.39,112.34 C 84.95,114.34 86.93,115.97 89.19,117.12 L 89.16,117.12 C 93.89,119.42 99.41,119.47 104.18,117.25 L 104.35,117.17 Z M 90.11,115.21 L 90.06,115.18 C 88.04,114.1 86.29,112.58 84.94,110.73 L 85,110.81 C 83.51,108.76 82.39,106.47 81.7,104.04 L 81.69,104 C 80.86,101.13 80.45,98.16 80.45,95.18 L 80.45,94.96 C 80.4,92.01 80.76,89.06 81.52,86.21 L 81.68,85.65 C 82.4,83.13 83.58,80.77 85.15,78.69 L 84.89,79.03 C 86.24,77.18 88.01,75.67 90.05,74.63 L 90.18,74.57 C 94.47,72.57 99.43,72.61 103.68,74.68 L 103.41,74.55 C 105.46,75.55 107.24,77.02 108.62,78.84 L 108.72,78.98 C 110.26,81.1 111.39,83.48 112.07,86.01 L 111.98,85.68 C 112.79,88.52 113.21,91.46 113.21,94.41 L 113.2,94.61 C 113.25,97.6 112.89,100.58 112.11,103.47 L 112.06,103.66 C 111.4,106.11 110.32,108.43 108.87,110.51 L 108.72,110.72 C 107.38,112.56 105.64,114.07 103.63,115.14 L 103.4,115.26 C 99.16,117.33 94.18,117.29 89.97,115.14 L 90.11,115.21 Z M 132.6,118.04 L 132.6,96.2 142.96,96.2 155.98,118.04 158.64,118.04 145.48,96.06 145.53,96.06 C 148.88,95.88 152.08,94.59 154.61,92.39 156.83,90.31 157.94,87.43 157.94,83.74 L 157.93,83.82 C 158,81.95 157.65,80.09 156.92,78.37 L 156.87,78.23 C 156.18,76.76 155.13,75.49 153.82,74.53 L 153.94,74.63 C 152.56,73.62 150.98,72.9 149.31,72.52 L 149.27,72.51 C 147.19,72.03 145.07,71.81 142.94,71.84 L 130.36,71.84 130.36,118.04 132.6,118.04 Z M 132.6,73.8 L 142.26,73.8 C 146.55,73.8 149.84,74.55 152.13,76.04 154.41,77.53 154.41,77.53 155.56,83.74 155.56,87.33 154.41,89.98 152.13,91.69 149.84,93.39 149.84,93.39 142.26,94.24 L 132.6,94.24 132.6,73.8 132.6,73.8 Z M 173.69,118.04 L 173.69,87.67 C 173.69,85.47 173.66,83.37 173.62,81.37 173.57,79.36 173.57,79.36 173.41,75.07 L 173.69,75.07 179.01,84.17 199.45,118.05 201.83,118.05 201.83,71.85 199.73,71.85 199.73,101.81 C 199.73,104 199.75,106.16 199.8,108.28 199.84,110.4 199.84,110.4 200.01,114.83 L 199.73,114.83 194.41,105.73 173.97,71.85 171.59,71.85 171.59,118.05 173.69,118.05 173.69,118.04 Z M 237.32,117.97 L 237.28,117.98 C 238.93,117.45 240.45,116.6 241.78,115.49 L 241.9,115.38 C 243.15,114.3 244.15,112.97 244.85,111.48 L 244.81,111.56 C 245.53,110.02 245.88,108.34 245.86,106.64 L 245.86,106.61 C 245.89,105.02 245.59,103.44 245,101.96 L 245.07,102.16 C 244.57,100.91 243.82,99.76 242.88,98.79 L 242.96,98.87 C 242.05,97.92 241.01,97.11 239.86,96.45 238.55,95.7 237.32,95.08 236.06,94.52 L 228.92,91.3 C 228.08,90.93 227.19,90.49 226.26,90 L 226.21,89.97 C 225.27,89.47 224.38,88.85 223.59,88.14 L 223.59,88.14 C 222.75,87.39 222.06,86.48 221.55,85.47 L 221.58,85.53 C 221.02,84.4 220.76,83.15 220.8,81.89 L 220.8,81.93 C 220.71,79.43 221.83,77.03 223.81,75.49 L 223.79,75.5 C 226.05,73.8 228.82,72.95 231.64,73.1 L 231.58,73.1 C 233.81,73.06 236.02,73.53 238.04,74.47 L 237.91,74.41 C 239.77,75.28 241.45,76.51 242.82,78.04 L 244.18,76.46 244.19,76.46 C 242.65,74.87 240.84,73.55 238.85,72.58 L 238.88,72.6 C 236.55,71.46 233.96,70.91 231.37,71 L 231.69,71 C 229.91,70.97 228.14,71.23 226.44,71.78 L 226.42,71.79 C 224.95,72.27 223.58,73.01 222.37,73.99 L 222.24,74.09 C 221.12,75.04 220.21,76.2 219.56,77.52 L 219.51,77.63 C 218.86,79.03 218.53,80.56 218.56,82.1 L 218.56,81.97 C 218.51,83.49 218.8,85 219.42,86.39 L 219.5,86.56 C 220.07,87.73 220.85,88.77 221.79,89.66 L 221.76,89.62 C 222.68,90.48 223.71,91.23 224.81,91.84 L 224.92,91.91 C 225.98,92.49 227.07,93.02 228.18,93.49 L 235.08,96.61 C 236.25,97.12 237.34,97.66 238.37,98.22 L 238.31,98.19 C 239.27,98.7 240.16,99.35 240.95,100.11 L 241.04,100.2 C 241.82,100.97 242.45,101.89 242.9,102.89 L 242.93,102.97 C 243.43,104.21 243.67,105.55 243.62,106.89 L 243.62,106.8 C 243.65,108.21 243.35,109.6 242.76,110.88 L 242.72,110.95 C 242.14,112.15 241.3,113.2 240.27,114.03 L 240.34,113.97 C 239.23,114.87 237.97,115.56 236.61,116 L 236.38,116.07 C 234.76,116.57 233.07,116.8 231.38,116.77 L 231.58,116.77 C 228.94,116.82 226.32,116.26 223.92,115.15 L 223.62,115 C 221.25,113.84 219.14,112.2 217.45,110.18 L 216.04,111.88 216.05,111.89 C 217.86,113.96 220.05,115.67 222.5,116.92 L 222.52,116.94 C 225.35,118.32 228.48,118.98 231.62,118.87 L 231.35,118.87 C 233.36,118.91 235.36,118.61 237.26,117.99 L 237.32,117.97 Z M 285.13,118.04 L 285.13,116.08 261.89,116.08 261.89,94.38 280.79,94.38 280.79,92.42 261.89,92.42 261.89,73.8 284.43,73.8 284.43,71.84 259.65,71.84 259.65,118.04 285.13,118.04 Z M 301.3,118.04 L 301.3,87.67 C 301.3,85.47 301.27,83.37 301.22,81.37 301.18,79.36 301.18,79.36 301.01,75.07 L 301.29,75.07 306.61,84.17 327.06,118.05 329.44,118.05 329.44,71.85 327.33,71.85 327.33,101.81 C 327.33,104 327.36,106.16 327.41,108.28 327.45,110.4 327.45,110.4 327.62,114.83 L 327.34,114.83 322.02,105.73 301.57,71.85 299.2,71.85 299.2,118.05 301.3,118.05 301.3,118.04 Z M 301.3,118.04" />
        <path id="soniaWebsiteTitel-sonia_Lynn" fill-rule="evenodd" stroke="none" fill="rgb(86, 86, 86)" d="M 22.28,47.97 L 22.25,47.98 C 23.89,47.45 25.42,46.6 26.74,45.49 L 26.87,45.39 C 28.11,44.3 29.12,42.97 29.81,41.48 L 29.77,41.56 C 30.49,40.02 30.85,38.34 30.82,36.64 L 30.82,36.63 C 30.85,35.04 30.56,33.46 29.96,31.98 L 30.03,32.16 C 29.53,30.91 28.78,29.77 27.84,28.79 L 27.92,28.87 C 27.01,27.93 25.96,27.11 24.82,26.45 23.5,25.7 22.28,25.08 21.02,24.52 L 13.88,21.3 C 13.04,20.93 12.15,20.5 11.22,20.01 L 11.17,19.98 C 10.22,19.48 9.34,18.86 8.55,18.14 L 8.55,18.15 C 7.71,17.39 7.02,16.49 6.5,15.48 L 6.54,15.54 C 5.98,14.41 5.72,13.15 5.76,11.89 L 5.76,11.94 C 5.67,9.43 6.79,7.04 8.77,5.49 L 8.75,5.51 C 11,3.81 13.78,2.96 16.6,3.11 L 16.54,3.1 C 18.77,3.06 20.98,3.53 23,4.48 L 22.87,4.41 C 24.73,5.28 26.41,6.52 27.78,8.05 L 29.14,6.46 29.15,6.47 C 27.61,4.88 25.8,3.56 23.81,2.59 L 23.84,2.61 C 21.5,1.47 18.92,0.92 16.32,1.01 L 16.65,1.01 C 14.87,0.97 13.1,1.24 11.4,1.79 L 11.38,1.8 C 9.91,2.28 8.54,3.02 7.33,4 L 7.2,4.1 C 6.08,5.04 5.17,6.21 4.52,7.53 L 4.47,7.64 C 3.82,9.04 3.49,10.57 3.52,12.11 L 3.52,11.98 C 3.47,13.5 3.76,15.01 4.38,16.4 L 4.46,16.57 C 5.03,17.73 5.81,18.78 6.75,19.66 L 6.7,19.62 C 7.63,20.48 8.65,21.23 9.76,21.84 L 9.88,21.91 C 10.94,22.49 12.03,23.02 13.14,23.5 L 20.04,26.61 C 21.21,27.13 22.3,27.66 23.33,28.22 L 23.27,28.19 C 24.23,28.7 25.12,29.35 25.91,30.11 L 26,30.2 C 26.78,30.98 27.41,31.89 27.85,32.9 L 27.89,32.97 C 28.39,34.22 28.63,35.55 28.58,36.89 L 28.58,36.81 C 28.6,38.21 28.31,39.61 27.71,40.88 L 27.68,40.96 C 27.09,42.15 26.26,43.2 25.23,44.04 L 25.3,43.98 C 24.19,44.87 22.93,45.56 21.57,46 L 21.34,46.08 C 19.72,46.57 18.03,46.81 16.34,46.78 L 16.54,46.78 C 13.9,46.82 11.28,46.27 8.88,45.15 L 8.58,45 C 6.21,43.85 4.1,42.2 2.41,40.18 L 1,41.88 1.01,41.89 C 2.82,43.97 5,45.68 7.46,46.93 L 7.48,46.94 C 10.31,48.32 13.44,48.98 16.58,48.87 L 16.31,48.88 C 18.31,48.91 20.31,48.61 22.22,47.99 L 22.28,47.97 Z M 63.96,47.17 L 63.85,47.22 C 66.21,46.07 68.28,44.4 69.89,42.33 L 69.79,42.46 C 71.57,40.19 72.92,37.6 73.76,34.84 L 73.77,34.82 C 74.72,31.71 75.2,28.47 75.2,25.21 L 75.2,24.95 C 75.26,21.54 74.78,18.14 73.78,14.87 L 73.77,14.84 C 72.95,12.17 71.65,9.67 69.94,7.47 L 69.83,7.34 C 68.19,5.31 66.1,3.67 63.72,2.57 L 63.93,2.67 C 59.17,0.45 53.67,0.45 48.91,2.67 L 48.93,2.66 C 46.65,3.77 44.65,5.36 43.06,7.33 L 42.94,7.48 C 41.22,9.67 39.93,12.16 39.11,14.83 L 39.1,14.87 C 38.1,18.14 37.62,21.54 37.68,24.95 L 37.68,24.64 C 37.62,28.09 38.11,31.52 39.11,34.82 L 39.12,34.85 C 39.96,37.6 41.31,40.18 43.08,42.45 L 43,42.35 C 44.56,44.34 46.54,45.98 48.8,47.13 L 48.77,47.12 C 53.5,49.42 59.02,49.47 63.79,47.25 L 63.96,47.17 Z M 49.72,45.21 L 49.67,45.18 C 47.65,44.11 45.9,42.59 44.55,40.73 L 44.61,40.82 C 43.12,38.77 42.01,36.47 41.31,34.04 L 41.3,34 C 40.48,31.13 40.06,28.16 40.06,25.18 L 40.06,24.96 C 40.01,22.01 40.37,19.07 41.14,16.22 L 41.29,15.65 C 42.01,13.14 43.19,10.78 44.76,8.69 L 44.51,9.04 C 45.85,7.18 47.62,5.67 49.66,4.63 L 49.79,4.57 C 54.08,2.57 59.04,2.61 63.29,4.69 L 63.02,4.56 C 65.07,5.55 66.86,7.03 68.23,8.85 L 68.33,8.98 C 69.87,11.1 71,13.49 71.68,16.01 L 71.59,15.68 C 72.4,18.52 72.82,21.46 72.82,24.42 L 72.81,24.61 C 72.86,27.6 72.5,30.58 71.72,33.47 L 71.67,33.67 C 71.01,36.12 69.93,38.44 68.48,40.51 L 68.33,40.72 C 66.99,42.56 65.25,44.08 63.24,45.14 L 63.02,45.26 C 58.77,47.33 53.8,47.29 49.59,45.14 L 49.72,45.21 Z M 88.22,48.04 L 88.22,17.67 C 88.22,15.47 88.2,13.37 88.15,11.37 88.1,9.36 88.1,9.36 87.94,5.07 L 88.22,5.07 93.54,14.17 113.98,48.05 116.36,48.05 116.36,1.85 114.26,1.85 114.26,31.81 C 114.26,34 114.28,36.16 114.33,38.28 114.38,40.4 114.38,40.4 114.54,44.83 L 114.26,44.83 108.94,35.73 88.5,1.85 86.12,1.85 86.12,48.05 88.22,48.05 88.22,48.04 Z M 132.6,48.04 L 132.6,1.84 130.36,1.84 130.36,48.04 132.6,48.04 Z M 155.1,12.34 C 155.96,9.82 156.81,7.12 157.65,4.22 L 157.93,4.22 C 158.77,7.12 159.63,9.82 160.49,12.34 161.35,14.86 161.35,14.86 163.25,20.32 L 166.47,29.56 149.04,29.56 152.33,20.32 C 153.32,17.52 154.24,14.86 155.1,12.34 Z M 142.53,48.04 L 148.34,31.52 167.17,31.52 172.91,48.04 175.29,48.04 158.77,1.84 156.81,1.84 140.29,48.04 142.53,48.04 Z M 220.93,48.04 L 220.93,46.08 199.23,46.08 199.23,1.84 197,1.84 197,48.04 220.94,48.04 220.93,48.04 Z M 233.81,48.04 L 233.81,29 247.67,1.84 245.43,1.84 238.01,16.82 C 237.22,18.5 236.39,20.16 235.53,21.79 234.67,23.43 234.67,23.43 232.83,26.76 L 232.55,26.76 C 231.62,25.08 230.76,23.43 229.96,21.79 229.17,20.16 229.17,20.16 227.51,16.82 L 220.09,1.84 217.71,1.84 231.57,29 231.57,48.04 233.81,48.04 Z M 257.05,48.04 L 257.05,17.67 C 257.05,15.47 257.03,13.37 256.98,11.37 256.94,9.36 256.94,9.36 256.77,5.07 L 257.05,5.07 262.37,14.17 282.81,48.05 285.19,48.05 285.19,1.85 283.09,1.85 283.09,31.81 C 283.09,34 283.12,36.16 283.16,38.28 283.21,40.4 283.21,40.4 283.37,44.83 L 283.1,44.83 277.78,35.73 257.34,1.85 254.96,1.85 254.96,48.05 257.06,48.05 257.05,48.04 Z M 301.29,48.04 L 301.29,17.67 C 301.29,15.47 301.27,13.37 301.22,11.37 301.18,9.36 301.18,9.36 301.01,5.07 L 301.29,5.07 306.61,14.17 327.05,48.05 329.43,48.05 329.43,1.85 327.33,1.85 327.33,31.81 C 327.33,34 327.36,36.16 327.4,38.28 327.45,40.4 327.45,40.4 327.61,44.83 L 327.33,44.83 322.01,35.73 301.57,1.85 299.2,1.85 299.2,48.05 301.3,48.05 301.29,48.04 Z M 301.29,48.04" />
    </g>
</svg>
