<?xml version="1.0" encoding="UTF-8"?>
<!DOCTYPE svg PUBLIC "-//W3C//DTD SVG 1.1//EN" "http://www.w3.org/Graphics/SVG/1.1/DTD/svg11.dtd">
<svg version="1.1" xmlns="http://www.w3.org/2000/svg" xmlns:xlink="http://www.w3.org/1999/xlink" width="350" height="140"  xml:space="preserve" id="soniaTitel01">
    <!-- Generated by PaintCode - http://www.paintcodeapp.com -->
    <g id="soniaTitel01-group">
        <path id="soniaTitel01-soniaTitel01Canvasbjornsen" fill-rule="evenodd" stroke="none" fill="rgb(68, 68, 68)" d="M 24.21,127.05 C 29.48,127.05 33.65,125.92 36.7,123.65 39.76,121.39 39.76,121.39 41.29,113.61 L 41.29,113.6 C 41.44,110.8 40.44,108.07 38.53,106.02 L 38.52,106.01 C 36.51,104.07 33.93,102.81 31.16,102.42 L 31.07,102.13 31.15,102.11 C 33.35,101.52 35.27,100.17 36.57,98.31 L 36.5,98.41 C 37.78,96.51 38.43,94.26 38.35,91.96 38.35,88.27 37.02,85.46 34.36,83.61 31.7,81.77 31.7,81.77 23.37,80.85 L 11.33,80.85 11.33,127.05 24.21,127.05 Z M 13.57,82.81 L 22.39,82.81 C 26.92,82.81 30.33,83.51 32.64,84.91 34.95,86.31 34.95,86.31 36.11,92.19 L 36.11,92.23 C 36.2,94.89 34.97,97.41 32.82,98.98 30.62,100.61 27.01,101.43 21.97,101.43 L 13.57,101.43 13.57,82.81 Z M 13.57,103.39 L 23.37,103.39 C 28.36,103.39 32.22,104.24 34.95,105.94 L 34.91,105.92 C 37.63,107.55 39.22,110.55 39.06,113.71 L 39.06,113.84 C 39.09,115.59 38.7,117.32 37.94,118.89 L 37.96,118.83 C 37.24,120.26 36.16,121.48 34.83,122.37 L 34.94,122.3 C 33.43,123.32 31.74,124.04 29.96,124.41 L 29.8,124.45 C 27.63,124.91 25.41,125.12 23.18,125.09 L 13.57,125.09 13.57,103.39 13.57,103.39 Z M 66.52,126.87 L 66.58,126.85 C 67.9,126.23 69.06,125.29 69.94,124.12 L 69.94,124.12 C 70.86,122.86 71.51,121.43 71.86,119.92 L 71.81,120.1 C 72.23,118.43 72.44,116.72 72.44,115 L 72.44,80.85 70.2,80.85 70.2,114.58 C 70.2,118.46 69.49,121.29 68.07,123.08 66.64,124.88 66.64,124.88 61.52,125.78 L 61.57,125.78 C 59.77,125.84 57.98,125.43 56.38,124.58 L 56.25,124.51 C 54.58,123.42 53.21,121.93 52.27,120.17 L 50.46,121.3 50.46,121.29 C 51.48,123.31 53.04,125.01 54.96,126.21 L 54.99,126.22 C 58.57,128.2 62.86,128.43 66.62,126.83 L 66.52,126.87 Z M 113.35,126.17 L 113.24,126.23 C 115.6,125.08 117.67,123.4 119.28,121.33 L 119.18,121.47 C 120.96,119.19 122.3,116.61 123.15,113.85 L 123.15,113.82 C 124.11,110.7 124.59,107.46 124.59,104.2 L 124.59,103.95 C 124.65,100.54 124.17,97.14 123.17,93.87 L 123.16,93.84 C 122.34,91.17 121.04,88.67 119.32,86.47 L 119.22,86.35 C 117.58,84.31 115.48,82.68 113.11,81.57 L 113.32,81.67 C 108.56,79.45 103.06,79.45 98.3,81.67 L 98.32,81.66 C 96.04,82.77 94.04,84.37 92.44,86.33 L 92.33,86.48 C 90.61,88.67 89.32,91.17 88.5,93.83 L 88.49,93.88 C 87.49,97.14 87.01,100.54 87.07,103.95 L 87.07,103.63 C 87.01,107.08 87.49,110.52 88.5,113.81 L 88.51,113.85 C 89.36,116.61 90.7,119.19 92.47,121.46 L 92.39,121.35 C 93.95,123.35 95.93,124.98 98.19,126.13 L 98.16,126.12 C 102.89,128.43 108.41,128.47 113.18,126.25 L 113.35,126.17 Z M 99.11,124.21 L 99.06,124.18 C 97.04,123.11 95.29,121.59 93.94,119.74 L 94,119.82 C 92.51,117.77 91.39,115.48 90.7,113.04 L 90.69,113 C 89.86,110.13 89.45,107.16 89.45,104.18 L 89.45,103.96 C 89.4,101.01 89.76,98.07 90.53,95.22 L 90.68,94.65 C 91.4,92.14 92.58,89.78 94.15,87.69 L 93.9,88.04 C 95.24,86.18 97.01,84.67 99.05,83.63 L 99.18,83.57 C 103.47,81.57 108.43,81.61 112.68,83.69 L 112.41,83.56 C 114.46,84.56 116.24,86.03 117.62,87.85 L 117.72,87.98 C 119.26,90.1 120.39,92.49 121.07,95.02 L 120.98,94.68 C 121.79,97.52 122.21,100.46 122.21,103.42 L 122.2,103.62 C 122.25,106.6 121.89,109.58 121.11,112.47 L 121.06,112.67 C 120.4,115.12 119.32,117.44 117.87,119.52 L 117.72,119.72 C 116.38,121.56 114.64,123.08 112.63,124.14 L 112.4,124.26 C 108.16,126.33 103.18,126.29 98.97,124.15 L 99.11,124.21 Z M 141.6,127.04 L 141.6,105.21 151.96,105.21 164.98,127.04 167.64,127.04 154.48,105.06 154.53,105.06 C 157.88,104.89 161.08,103.6 163.61,101.39 165.83,99.31 166.94,96.43 166.94,92.75 L 166.94,92.82 C 167,90.95 166.66,89.09 165.93,87.37 L 165.87,87.24 C 165.18,85.77 164.13,84.49 162.82,83.54 L 162.94,83.63 C 161.56,82.63 159.98,81.91 158.31,81.52 L 158.27,81.51 C 156.19,81.03 154.07,80.81 151.94,80.85 L 139.36,80.84 139.36,127.04 141.6,127.04 Z M 141.6,82.81 L 151.26,82.81 C 155.55,82.81 158.84,83.55 161.13,85.05 163.41,86.54 163.41,86.54 164.56,92.75 164.56,96.34 163.41,98.99 161.13,100.69 158.84,102.39 158.84,102.39 151.26,103.24 L 141.6,103.24 141.6,82.81 141.6,82.81 Z M 182.69,127.04 L 182.69,96.67 C 182.69,94.48 182.66,92.38 182.62,90.37 182.57,88.36 182.57,88.36 182.41,84.07 L 182.69,84.07 188.01,93.17 208.45,127.05 210.83,127.05 210.83,80.85 208.73,80.85 208.73,110.81 C 208.73,113 208.75,115.16 208.8,117.28 208.84,119.41 208.84,119.41 209.01,123.83 L 208.73,123.83 203.41,114.73 182.97,80.85 180.59,80.85 180.59,127.05 182.69,127.05 182.69,127.04 Z M 246.32,126.97 L 246.28,126.99 C 247.93,126.45 249.46,125.6 250.78,124.49 L 250.91,124.39 C 252.15,123.31 253.15,121.97 253.85,120.48 L 253.81,120.56 C 254.53,119.02 254.89,117.34 254.86,115.65 L 254.86,115.62 C 254.89,114.03 254.59,112.44 254,110.97 L 254.08,111.17 C 253.57,109.91 252.83,108.77 251.89,107.79 L 251.96,107.87 C 251.05,106.93 250.01,106.11 248.87,105.45 247.55,104.7 246.32,104.09 245.06,103.52 L 237.92,100.3 C 237.08,99.93 236.2,99.5 235.26,99 L 235.21,98.98 C 234.27,98.48 233.38,97.86 232.59,97.14 L 232.59,97.15 C 231.75,96.39 231.06,95.49 230.55,94.48 L 230.58,94.54 C 230.02,93.4 229.76,92.15 229.8,90.89 L 229.8,90.94 C 229.72,88.43 230.83,86.03 232.81,84.49 L 232.79,84.5 C 235.05,82.81 237.83,81.96 240.64,82.1 L 240.58,82.1 C 242.81,82.06 245.02,82.53 247.05,83.47 L 246.91,83.41 C 248.78,84.28 250.45,85.52 251.82,87.05 L 253.18,85.46 253.19,85.47 C 251.65,83.87 249.84,82.56 247.85,81.59 L 247.88,81.6 C 245.55,80.46 242.96,79.92 240.37,80.01 L 240.7,80 C 238.91,79.97 237.14,80.24 235.44,80.79 L 235.42,80.79 C 233.95,81.27 232.58,82.02 231.37,82.99 L 231.24,83.1 C 230.12,84.04 229.21,85.21 228.56,86.53 L 228.51,86.64 C 227.86,88.04 227.54,89.56 227.56,91.11 L 227.56,90.98 C 227.51,92.49 227.81,94 228.42,95.39 L 228.5,95.57 C 229.07,96.73 229.85,97.78 230.79,98.66 L 230.76,98.63 C 231.68,99.49 232.71,100.23 233.81,100.85 L 233.92,100.91 C 234.98,101.5 236.07,102.03 237.18,102.5 L 244.08,105.61 C 245.25,106.13 246.34,106.67 247.37,107.22 L 247.31,107.19 C 248.27,107.7 249.16,108.35 249.95,109.11 L 250.04,109.2 C 250.82,109.98 251.45,110.89 251.9,111.9 L 251.93,111.97 C 252.43,113.22 252.67,114.55 252.62,115.89 L 252.62,115.81 C 252.65,117.21 252.35,118.61 251.76,119.88 L 251.72,119.96 C 251.14,121.15 250.3,122.2 249.27,123.04 L 249.34,122.98 C 248.23,123.88 246.97,124.56 245.61,125 L 245.38,125.08 C 243.76,125.57 242.07,125.81 240.38,125.78 L 240.58,125.78 C 237.94,125.82 235.32,125.27 232.92,124.15 L 232.62,124.01 C 230.25,122.85 228.15,121.2 226.45,119.18 L 225.04,120.88 225.05,120.89 C 226.86,122.97 229.05,124.68 231.5,125.93 L 231.52,125.94 C 234.35,127.32 237.48,127.98 240.62,127.87 L 240.35,127.88 C 242.36,127.91 244.36,127.62 246.26,127 L 246.32,126.97 Z M 294.13,127.04 L 294.13,125.09 270.89,125.09 270.89,103.39 289.79,103.39 289.79,101.43 270.89,101.43 270.89,82.81 293.43,82.81 293.43,80.85 268.65,80.85 268.65,127.05 294.13,127.04 Z M 310.3,127.04 L 310.3,96.67 C 310.3,94.48 310.27,92.38 310.23,90.37 310.18,88.36 310.18,88.36 310.02,84.07 L 310.3,84.07 315.62,93.17 336.06,127.05 338.44,127.05 338.44,80.85 336.34,80.85 336.34,110.81 C 336.34,113 336.36,115.16 336.41,117.28 336.45,119.41 336.45,119.41 336.62,123.83 L 336.34,123.83 331.02,114.73 310.58,80.85 308.2,80.85 308.2,127.05 310.3,127.05 310.3,127.04 Z M 310.3,127.04" />
        <path id="soniaTitel01-soniaTitel01Canvassonia_Lynn" fill-rule="evenodd" stroke="none" fill="rgb(68, 68, 68)" d="M 31.28,56.98 L 31.25,56.99 C 32.89,56.45 34.42,55.61 35.75,54.5 L 35.87,54.39 C 37.11,53.31 38.12,51.98 38.81,50.48 L 38.78,50.56 C 39.49,49.03 39.85,47.35 39.82,45.65 L 39.82,45.63 C 39.85,44.04 39.56,42.46 38.96,40.98 L 39.03,41.17 C 38.53,39.91 37.78,38.77 36.84,37.8 L 36.92,37.88 C 36.01,36.93 34.97,36.11 33.82,35.46 32.51,34.71 31.28,34.09 30.02,33.53 L 22.88,30.31 C 22.04,29.94 21.15,29.5 20.22,29.01 L 20.17,28.99 C 19.23,28.48 18.34,27.87 17.55,27.15 L 17.55,27.15 C 16.71,26.4 16.02,25.49 15.51,24.49 L 15.54,24.54 C 14.98,23.41 14.72,22.16 14.76,20.9 L 14.76,20.95 C 14.67,18.44 15.79,16.04 17.77,14.5 L 17.75,14.51 C 20.01,12.81 22.78,11.96 25.6,12.11 L 25.54,12.11 C 27.77,12.07 29.98,12.54 32,13.48 L 31.87,13.42 C 33.73,14.29 35.41,15.53 36.78,17.06 L 38.14,15.47 38.15,15.47 C 36.61,13.88 34.8,12.57 32.81,11.59 L 32.84,11.61 C 30.51,10.47 27.92,9.92 25.33,10.01 L 25.65,10.01 C 23.87,9.98 22.1,10.24 20.4,10.79 L 20.38,10.8 C 18.91,11.28 17.54,12.02 16.33,13 L 16.2,13.11 C 15.08,14.05 14.17,15.22 13.52,16.54 L 13.47,16.64 C 12.82,18.04 12.49,19.57 12.52,21.12 L 12.52,20.98 C 12.47,22.5 12.76,24.01 13.38,25.4 L 13.46,25.58 C 14.03,26.74 14.81,27.79 15.75,28.67 L 15.7,28.62 C 16.63,29.48 17.65,30.23 18.76,30.84 L 18.88,30.91 C 19.94,31.5 21.03,32.03 22.14,32.5 L 29.04,35.62 C 30.21,36.13 31.3,36.67 32.33,37.23 L 32.27,37.19 C 33.23,37.71 34.12,38.35 34.91,39.11 L 35,39.2 C 35.78,39.98 36.41,40.9 36.86,41.9 L 36.89,41.98 C 37.39,43.22 37.63,44.55 37.58,45.9 L 37.58,45.81 C 37.61,47.22 37.31,48.61 36.72,49.88 L 36.68,49.96 C 36.1,51.15 35.26,52.2 34.23,53.04 L 34.3,52.98 C 33.19,53.88 31.93,54.57 30.57,55.01 L 30.34,55.08 C 28.72,55.57 27.03,55.81 25.34,55.78 L 25.54,55.78 C 22.9,55.83 20.28,55.27 17.88,54.15 L 17.58,54.01 C 15.21,52.85 13.1,51.21 11.41,49.18 L 10,50.88 10.01,50.9 C 11.82,52.97 14.01,54.68 16.46,55.93 L 16.48,55.94 C 19.31,57.32 22.44,57.99 25.58,57.88 L 25.31,57.88 C 27.31,57.92 29.31,57.62 31.22,57 L 31.28,56.98 Z M 72.97,56.17 L 72.85,56.23 C 75.21,55.08 77.28,53.41 78.89,51.34 L 78.79,51.47 C 80.57,49.19 81.92,46.61 82.76,43.85 L 82.77,43.83 C 83.72,40.71 84.2,37.47 84.2,34.21 L 84.2,33.96 C 84.26,30.54 83.78,27.14 82.78,23.87 L 82.77,23.84 C 81.96,21.17 80.66,18.67 78.94,16.47 L 78.84,16.35 C 77.19,14.31 75.1,12.68 72.72,11.57 L 72.93,11.67 C 68.17,9.45 62.67,9.45 57.91,11.67 L 57.93,11.67 C 55.65,12.77 53.65,14.37 52.06,16.33 L 51.94,16.48 C 50.22,18.68 48.93,21.17 48.11,23.83 L 48.1,23.88 C 47.1,27.14 46.62,30.54 46.68,33.95 L 46.68,33.64 C 46.62,37.09 47.11,40.52 48.11,43.82 L 48.12,43.85 C 48.97,46.61 50.31,49.19 52.08,51.46 L 52,51.35 C 53.56,53.35 55.54,54.98 57.8,56.13 L 57.77,56.12 C 62.5,58.43 68.02,58.48 72.79,56.25 L 72.97,56.17 Z M 58.72,54.21 L 58.67,54.19 C 56.65,53.11 54.9,51.59 53.55,49.74 L 53.61,49.82 C 52.13,47.77 51.01,45.48 50.31,43.04 L 50.3,43.01 C 49.48,40.14 49.06,37.17 49.06,34.18 L 49.06,33.97 C 49.01,31.02 49.37,28.07 50.14,25.22 L 50.29,24.65 C 51.02,22.14 52.19,19.78 53.76,17.69 L 53.51,18.04 C 54.86,16.19 56.62,14.68 58.67,13.64 L 58.8,13.57 C 63.08,11.57 68.04,11.62 72.29,13.69 L 72.02,13.56 C 74.07,14.56 75.86,16.03 77.23,17.85 L 77.33,17.99 C 78.87,20.11 80.01,22.49 80.68,25.02 L 80.59,24.68 C 81.41,27.52 81.82,30.46 81.82,33.42 L 81.81,33.62 C 81.87,36.61 81.5,39.59 80.73,42.47 L 80.67,42.67 C 80.01,45.12 78.93,47.44 77.48,49.52 L 77.33,49.73 C 75.99,51.57 74.25,53.08 72.24,54.15 L 72.02,54.26 C 67.77,56.33 62.8,56.29 58.59,54.15 L 58.72,54.21 Z M 97.22,57.05 L 97.22,26.67 C 97.22,24.48 97.2,22.38 97.15,20.37 97.1,18.36 97.1,18.36 96.94,14.07 L 97.22,14.07 102.54,23.17 122.98,57.05 125.36,57.05 125.36,10.85 123.26,10.85 123.26,40.81 C 123.26,43 123.28,45.16 123.33,47.28 123.38,49.41 123.38,49.41 123.54,53.83 L 123.26,53.83 117.94,44.73 97.5,10.85 95.12,10.85 95.12,57.05 97.22,57.05 97.22,57.05 Z M 141.6,57.05 L 141.6,10.85 139.36,10.85 139.36,57.05 141.6,57.05 Z M 164.1,21.35 C 164.96,18.83 165.82,16.12 166.65,13.23 L 166.93,13.23 C 167.77,16.12 168.63,18.83 169.49,21.35 170.35,23.87 170.35,23.87 172.25,29.33 L 175.47,38.57 158.04,38.57 161.34,29.33 C 162.32,26.53 163.24,23.87 164.1,21.35 Z M 151.53,57.05 L 157.34,40.53 176.17,40.53 181.91,57.05 184.29,57.05 167.78,10.85 165.82,10.85 149.3,57.05 151.53,57.05 Z M 229.93,57.05 L 229.93,55.09 208.23,55.09 208.23,10.85 206,10.85 206,57.05 229.94,57.05 229.93,57.05 Z M 242.81,57.05 L 242.81,38.01 256.67,10.85 254.43,10.85 247.01,25.83 C 246.22,27.51 245.39,29.16 244.53,30.8 243.67,32.43 243.67,32.43 241.83,35.77 L 241.55,35.77 C 240.62,34.09 239.76,32.43 238.96,30.8 238.17,29.16 238.17,29.16 236.52,25.83 L 229.09,10.85 226.71,10.85 240.58,38.01 240.58,57.05 242.81,57.05 Z M 266.05,57.05 L 266.05,26.67 C 266.05,24.48 266.03,22.38 265.98,20.37 265.94,18.36 265.94,18.36 265.77,14.07 L 266.05,14.07 271.37,23.17 291.81,57.05 294.19,57.05 294.19,10.85 292.09,10.85 292.09,40.81 C 292.09,43 292.12,45.16 292.16,47.28 292.21,49.41 292.21,49.41 292.37,53.83 L 292.1,53.83 286.78,44.73 266.34,10.85 263.96,10.85 263.96,57.05 266.06,57.05 266.05,57.05 Z M 310.29,57.05 L 310.29,26.67 C 310.29,24.48 310.27,22.38 310.22,20.37 310.18,18.36 310.18,18.36 310.01,14.07 L 310.29,14.07 315.61,23.17 336.05,57.05 338.43,57.05 338.43,10.85 336.33,10.85 336.33,40.81 C 336.33,43 336.36,45.16 336.4,47.28 336.45,49.41 336.45,49.41 336.61,53.83 L 336.33,53.83 331.01,44.73 310.57,10.85 308.2,10.85 308.2,57.05 310.3,57.05 310.29,57.05 Z M 310.29,57.05" />
    </g>
</svg>
